<svg width="179" height="64" viewBox="0 0 179 64" fill="none" xmlns="http://www.w3.org/2000/svg">
<rect width="179" height="64" rx="32" fill="#6A6A6A"/>
<path d="M41.2215 30.6137C41.2391 29.2721 41.602 27.9568 42.2765 26.79C42.9509 25.6232 43.915 24.6428 45.079 23.9402C44.3395 22.9032 43.364 22.0499 42.2299 21.4478C41.0959 20.8458 39.8344 20.5118 38.5459 20.4722C35.7971 20.1889 33.1324 22.0872 31.7317 22.0872C30.3039 22.0872 28.1473 20.5003 25.825 20.5472C24.3228 20.5949 22.8589 21.0238 21.5758 21.7922C20.2927 22.5605 19.2341 23.6422 18.5033 24.9317C15.3376 30.3135 17.6989 38.223 20.7314 42.5733C22.2487 44.7035 24.0219 47.083 26.3421 46.9986C28.6125 46.9061 29.4605 45.577 32.2012 45.577C34.9164 45.577 35.7119 46.9986 38.0792 46.9449C40.5155 46.9061 42.0505 44.8053 43.5145 42.6549C44.6046 41.137 45.4435 39.4595 46 37.6844C44.5846 37.0965 43.3767 36.1126 42.5269 34.8552C41.6772 33.5979 41.2232 32.1227 41.2215 30.6137V30.6137Z" fill="white"/>
<path d="M36.7498 17.6104C38.0782 16.0446 38.7326 14.032 38.5741 12C36.5447 12.2093 34.67 13.1617 33.3237 14.6675C32.6654 15.403 32.1613 16.2588 31.84 17.1858C31.5188 18.1129 31.3868 19.093 31.4516 20.0701C32.4667 20.0804 33.4709 19.8644 34.3886 19.4383C35.3064 19.0122 36.1137 18.3872 36.7498 17.6104Z" fill="white"/>
<path d="M67.5962 42.1696H61.9163L60.5523 46.2324H58.1465L63.5264 31.2012H66.0259L71.4058 46.2324H68.959L67.5962 42.1696ZM62.5045 40.2949H67.0068L64.7873 33.7013H64.7252L62.5045 40.2949Z" fill="white"/>
<path d="M83.0247 40.753C83.0247 44.1586 81.2177 46.3466 78.4909 46.3466C77.8001 46.383 77.1131 46.2225 76.5086 45.8834C75.9041 45.5443 75.4064 45.0404 75.0726 44.4292H75.021V49.8573H72.791V35.2729H74.9496V37.0957H74.9906C75.3397 36.4875 75.8458 35.9861 76.4549 35.645C77.0641 35.3038 77.7535 35.1356 78.4499 35.1583C81.2071 35.1583 83.0247 37.3569 83.0247 40.753ZM80.7326 40.753C80.7326 38.5343 79.5959 37.0756 77.8616 37.0756C76.1577 37.0756 75.0117 38.565 75.0117 40.753C75.0117 42.9611 76.1577 44.4399 77.8616 44.4399C79.5959 44.4399 80.7326 42.9919 80.7326 40.753Z" fill="white"/>
<path d="M94.9817 40.753C94.9817 44.1586 93.1748 46.3466 90.4479 46.3466C89.7571 46.383 89.0702 46.2225 88.4656 45.8834C87.8611 45.5443 87.3634 45.0404 87.0297 44.4292H86.9781V49.8573H84.748V35.2729H86.9066V37.0957H86.9476C87.2967 36.4875 87.8028 35.9861 88.4119 35.645C89.0211 35.3038 89.7105 35.1356 90.4069 35.1583C93.1642 35.1583 94.9817 37.3569 94.9817 40.753ZM92.6896 40.753C92.6896 38.5343 91.5529 37.0756 89.8186 37.0756C88.1148 37.0756 86.9687 38.565 86.9687 40.753C86.9687 42.9611 88.1148 44.4399 89.8186 44.4399C91.553 44.4399 92.6896 42.9919 92.6896 40.753H92.6896Z" fill="white"/>
<path d="M102.884 42.045C103.05 43.5356 104.485 44.5143 106.447 44.5143C108.326 44.5143 109.679 43.5355 109.679 42.1915C109.679 41.0248 108.863 40.3262 106.932 39.8474L105.001 39.3782C102.264 38.7115 100.994 37.4206 100.994 35.326C100.994 32.7326 103.235 30.9512 106.416 30.9512C109.565 30.9512 111.724 32.7326 111.796 35.326H109.545C109.41 33.826 108.181 32.9205 106.385 32.9205C104.588 32.9205 103.359 33.8366 103.359 35.17C103.359 36.2327 104.144 36.858 106.065 37.3367L107.706 37.7433C110.764 38.4727 112.034 39.7115 112.034 41.9101C112.034 44.7222 109.813 46.4835 106.281 46.4835C102.977 46.4835 100.746 44.7636 100.602 42.0449L102.884 42.045Z" fill="white"/>
<path d="M116.848 32.6826V35.2761H118.913V37.0575H116.848V43.099C116.848 44.0376 117.261 44.475 118.169 44.475C118.415 44.4706 118.659 44.4533 118.903 44.4229V46.1936C118.495 46.2706 118.08 46.3055 117.664 46.2977C115.465 46.2977 114.607 45.4643 114.607 43.3389V37.0575H113.027V35.2761H114.607V32.6826H116.848Z" fill="white"/>
<path d="M120.109 40.7535C120.109 37.3054 122.123 35.1387 125.262 35.1387C128.412 35.1387 130.416 37.3054 130.416 40.7535C130.416 44.2111 128.422 46.3683 125.262 46.3683C122.103 46.3683 120.109 44.2111 120.109 40.7535ZM128.143 40.7535C128.143 38.3882 127.069 36.9922 125.262 36.9922C123.455 36.9922 122.382 38.3988 122.382 40.7535C122.382 43.1283 123.455 44.5137 125.262 44.5137C127.069 44.5137 128.143 43.1283 128.143 40.7535H128.143Z" fill="white"/>
<path d="M132.254 35.2728H134.381V37.1381H134.432C134.576 36.5556 134.915 36.0407 135.391 35.6801C135.866 35.3196 136.451 35.1352 137.046 35.1582C137.303 35.1572 137.559 35.1854 137.81 35.2421V37.3462C137.485 37.2462 137.147 37.2003 136.808 37.2102C136.484 37.197 136.161 37.2546 135.861 37.3791C135.561 37.5037 135.292 37.6922 135.071 37.9317C134.85 38.1712 134.683 38.4561 134.582 38.7668C134.481 39.0775 134.447 39.4066 134.484 39.7316V46.2318H132.254L132.254 35.2728Z" fill="white"/>
<path d="M148.093 43.0136C147.793 45.003 145.872 46.3683 143.415 46.3683C140.255 46.3683 138.293 44.2323 138.293 40.8055C138.293 37.3681 140.265 35.1387 143.321 35.1387C146.327 35.1387 148.217 37.2215 148.217 40.5443V41.315H140.544V41.4509C140.509 41.8542 140.559 42.2605 140.691 42.6429C140.823 43.0252 141.034 43.3747 141.311 43.6683C141.587 43.9619 141.922 44.1928 142.294 44.3457C142.666 44.4986 143.066 44.5699 143.467 44.555C143.994 44.6048 144.522 44.4817 144.975 44.204C145.427 43.9263 145.778 43.5088 145.976 43.0136L148.093 43.0136ZM140.555 39.7428H145.986C146.006 39.3802 145.952 39.0173 145.826 38.6769C145.7 38.3365 145.506 38.026 145.256 37.7648C145.006 37.5036 144.705 37.2975 144.372 37.1592C144.039 37.021 143.681 36.9536 143.321 36.9614C142.958 36.9592 142.598 37.0296 142.262 37.1685C141.926 37.3074 141.621 37.512 141.363 37.7706C141.106 38.0292 140.902 38.3366 140.763 38.6751C140.625 39.0136 140.554 39.3765 140.555 39.7428V39.7428Z" fill="white"/>
<path d="M60.4512 26.4375C60.6035 26.4766 60.7637 26.5059 60.9316 26.5254C61.1035 26.5449 61.2891 26.5547 61.4883 26.5547C62.1055 26.5547 62.6289 26.4023 63.0586 26.0977C63.4883 25.7969 63.8418 25.3574 64.1191 24.7793L67.5 17.7363H66.0293L64.207 21.6738C64.1367 21.8262 64.0703 21.9824 64.0078 22.1426C63.9453 22.3027 63.8906 22.4688 63.8438 22.6406H63.8145C63.7676 22.4688 63.7109 22.3027 63.6445 22.1426C63.582 21.9824 63.5137 21.8242 63.4395 21.668L61.5996 17.7363H60.0293L63.0703 23.9473L63.1641 23.9531C62.8828 24.6055 62.6152 25.0078 62.3613 25.1602C62.1074 25.3164 61.7812 25.3945 61.3828 25.3945C61.2305 25.3945 61.0742 25.3848 60.9141 25.3652C60.7539 25.3457 60.6035 25.3203 60.4629 25.2891L60.4512 26.4375ZM68.2598 20.959C68.2598 21.9277 68.6055 22.707 69.2969 23.2969C69.9922 23.8828 70.9316 24.1758 72.1152 24.1758C73.2285 24.1758 74.0781 23.9473 74.6641 23.4902C75.25 23.0293 75.543 22.5059 75.543 21.9199V21.8672H74.043V21.9258C74.0352 22.2539 73.8828 22.5215 73.5859 22.7285C73.293 22.9316 72.8008 23.0332 72.1094 23.0332C71.3125 23.0332 70.7246 22.8477 70.3457 22.4766C69.9668 22.1055 69.7773 21.6172 69.7773 21.0117V20.7246C69.7773 20.1191 69.9668 19.6309 70.3457 19.2598C70.7246 18.8887 71.3125 18.7031 72.1094 18.7031C72.8008 18.7031 73.293 18.8066 73.5859 19.0137C73.8828 19.2207 74.0352 19.4844 74.043 19.8047V19.8691H75.543V19.7988C75.5234 19.2129 75.2246 18.6934 74.6465 18.2402C74.0723 17.7871 73.2305 17.5605 72.1211 17.5605C70.9336 17.5605 69.9922 17.8555 69.2969 18.4453C68.6055 19.0312 68.2598 19.8066 68.2598 20.7715V20.959ZM76.2559 18.873H78.9336V24H80.4219V18.873H83.0996V17.7363H76.2559V18.873ZM84.0469 22.1602C84.0469 22.793 84.2949 23.2773 84.791 23.6133C85.291 23.9492 85.959 24.1172 86.7949 24.1172C87.5254 24.1172 88.1328 24.0234 88.6172 23.8359C89.1016 23.6484 89.4336 23.4258 89.6133 23.168C89.6289 23.3164 89.6641 23.4688 89.7188 23.625C89.7734 23.7812 89.832 23.9062 89.8945 24H91.3359V23.9062C91.2461 23.7422 91.1738 23.5469 91.1191 23.3203C91.0684 23.0938 91.043 22.8555 91.043 22.6055V19.6816C91.043 18.9863 90.7617 18.459 90.1992 18.0996C89.6406 17.7402 88.8516 17.5605 87.832 17.5605C86.793 17.5605 85.9746 17.7285 85.377 18.0645C84.7832 18.3965 84.4863 18.8672 84.4863 19.4766V19.5234H85.957V19.4707C85.957 19.2129 86.1055 19.0078 86.4023 18.8555C86.7031 18.7031 87.1602 18.627 87.7734 18.627C88.4062 18.627 88.8633 18.7129 89.1445 18.8848C89.4258 19.0566 89.5664 19.3223 89.5664 19.6816V20.1094H87.5625C86.4609 20.1094 85.5996 20.2852 84.9785 20.6367C84.3574 20.9883 84.0469 21.4961 84.0469 22.1602ZM85.5234 22.0605C85.5234 21.7285 85.7148 21.4727 86.0977 21.293C86.4844 21.1133 87.0449 21.0234 87.7793 21.0234H89.5723V21.7617C89.5723 22.0938 89.3438 22.3926 88.8867 22.6582C88.4297 22.9238 87.8965 23.0566 87.2871 23.0566C86.6738 23.0566 86.2266 22.9746 85.9453 22.8105C85.6641 22.6465 85.5234 22.3965 85.5234 22.0605ZM93.0918 17.7363V24H94.5742V21.375H98.3594V24H99.8477V17.7363H98.3594V20.2383H94.5742V17.7363H93.0918ZM101.521 20.959C101.521 21.9238 101.881 22.7012 102.6 23.291C103.318 23.8809 104.268 24.1758 105.447 24.1758C106.627 24.1758 107.576 23.8809 108.295 23.291C109.014 22.7012 109.373 21.9238 109.373 20.959V20.7715C109.373 19.8066 109.014 19.0312 108.295 18.4453C107.576 17.8555 106.627 17.5605 105.447 17.5605C104.268 17.5605 103.318 17.8555 102.6 18.4453C101.881 19.0312 101.521 19.8066 101.521 20.7715V20.959ZM103.039 20.7246C103.039 20.127 103.244 19.6445 103.654 19.2773C104.064 18.9062 104.662 18.7207 105.447 18.7207C106.229 18.7207 106.824 18.9062 107.234 19.2773C107.645 19.6445 107.85 20.127 107.85 20.7246V21.0059C107.85 21.6074 107.645 22.0938 107.234 22.4648C106.828 22.832 106.232 23.0156 105.447 23.0156C104.662 23.0156 104.064 22.832 103.654 22.4648C103.244 22.0938 103.039 21.6094 103.039 21.0117V20.7246ZM111.041 24H115.412C116.178 24 116.764 23.8438 117.17 23.5312C117.576 23.2188 117.779 22.7812 117.779 22.2188C117.779 21.8203 117.654 21.5 117.404 21.2578C117.158 21.0117 116.834 20.8516 116.432 20.7773V20.7598C116.791 20.6582 117.068 20.4922 117.264 20.2617C117.463 20.0273 117.562 19.7285 117.562 19.3652C117.562 18.8262 117.369 18.4199 116.982 18.1465C116.596 17.873 116.004 17.7363 115.207 17.7363H111.041V24ZM112.512 20.3145V18.7734H115.061C115.416 18.7734 115.67 18.8359 115.822 18.9609C115.979 19.0859 116.057 19.2695 116.057 19.5117C116.057 19.7656 115.979 19.9629 115.822 20.1035C115.67 20.2441 115.416 20.3145 115.061 20.3145H112.512ZM112.512 22.9629V21.3164H115.236C115.6 21.3164 115.865 21.3887 116.033 21.5332C116.201 21.6777 116.285 21.877 116.285 22.1309C116.285 22.3887 116.201 22.5918 116.033 22.7402C115.865 22.8887 115.6 22.9629 115.236 22.9629H112.512ZM119.447 24H120.93L124.352 20.0156C124.449 19.8984 124.529 19.7852 124.592 19.6758C124.654 19.5664 124.711 19.4531 124.762 19.3359H124.791C124.787 19.457 124.781 19.5898 124.773 19.7344C124.77 19.8789 124.768 20.0117 124.768 20.1328V24H126.256V17.7363H124.773L121.352 21.709C121.254 21.8262 121.174 21.9395 121.111 22.0488C121.053 22.1582 120.996 22.2715 120.941 22.3887H120.906C120.91 22.2676 120.916 22.1348 120.924 21.9902C120.932 21.8418 120.936 21.707 120.936 21.5859V17.7363H119.447V24ZM127.584 18.873H130.262V24H131.75V18.873H134.428V17.7363H127.584V18.873ZM137.238 17.7363H135.756V24H139.734C140.539 24 141.154 23.8125 141.58 23.4375C142.01 23.0625 142.225 22.5449 142.225 21.8848C142.225 21.2012 142.01 20.6777 141.58 20.3145C141.154 19.9473 140.539 19.7637 139.734 19.7637H137.238V17.7363ZM139.547 20.8477C139.977 20.8477 140.281 20.9395 140.461 21.123C140.641 21.3027 140.73 21.5527 140.73 21.873C140.73 22.2051 140.641 22.4629 140.461 22.6465C140.281 22.8301 139.977 22.9219 139.547 22.9219H137.238V20.8477H139.547Z" fill="white"/>
</svg>
