<svg width="200" height="64" viewBox="0 0 200 64" fill="none" xmlns="http://www.w3.org/2000/svg">
<rect width="200" height="64" rx="32" fill="#6A6A6A"/>
<path d="M22.6015 16.4951C22.2235 16.8783 22 17.473 22 18.243V45.757C22 46.5283 22.2235 47.1217 22.6015 47.5049L22.6977 47.5945L38.7932 32.1816V32V31.8184L22.6977 16.4043L22.6015 16.4951Z" fill="url(#paint0_linear_2767_17592)"/>
<path d="M44.1592 37.3212L38.7949 32.182V32.0003V31.8187L44.1605 26.6807L44.2814 26.7466L50.6382 30.2051C52.4545 31.1929 52.4545 32.809 50.6382 33.798L44.2814 37.2565L44.1592 37.3212Z" fill="url(#paint1_linear_2767_17592)"/>
<path d="M44.281 37.255L38.7945 32L22.6016 47.5049C23.2005 48.112 24.1879 48.1866 25.3013 47.5808L44.281 37.255Z" fill="url(#paint2_linear_2767_17592)"/>
<path d="M44.2816 26.744L25.3032 16.4182C24.1898 15.8124 23.2024 15.8883 22.6035 16.4941L38.7952 31.999L44.2816 26.744Z" fill="url(#paint3_linear_2767_17592)"/>
<path opacity="0.2" d="M44.1601 37.1387L25.3026 47.3985C24.2476 47.9721 23.3044 47.9347 22.699 47.4122L22.6016 47.5055L22.6977 47.5951C23.3031 48.1176 24.2463 48.1562 25.3013 47.5814L44.2797 37.2556L44.1601 37.1387Z" fill="black"/>
<path opacity="0.12" d="M22.6015 47.3241C22.2235 46.9409 22 46.3463 22 45.5762V45.7578C22 46.5279 22.2235 47.1226 22.6015 47.5057L22.699 47.4124L22.6015 47.3241Z" fill="black"/>
<path opacity="0.12" d="M50.6379 33.6136L44.1602 37.138L44.281 37.2537L50.6379 33.7952C51.546 33.3013 51.9994 32.6507 51.9994 32C51.9228 32.5884 51.4602 33.1657 50.6379 33.6136Z" fill="black"/>
<path opacity="0.25" d="M25.3012 16.6005L50.6365 30.3848C51.4602 30.8327 51.9214 31.4099 51.998 31.9996C51.998 31.349 51.5446 30.6971 50.6365 30.2032L25.3012 16.4188C23.485 15.431 22 16.2509 22 18.2427V18.4255C22 16.4338 23.4863 15.6127 25.3012 16.6005Z" fill="white"/>
<path d="M68.4512 26.4375C68.6035 26.4766 68.7637 26.5059 68.9316 26.5254C69.1035 26.5449 69.2891 26.5547 69.4883 26.5547C70.1055 26.5547 70.6289 26.4023 71.0586 26.0977C71.4883 25.7969 71.8418 25.3574 72.1191 24.7793L75.5 17.7363H74.0293L72.207 21.6738C72.1367 21.8262 72.0703 21.9824 72.0078 22.1426C71.9453 22.3027 71.8906 22.4688 71.8438 22.6406H71.8145C71.7676 22.4688 71.7109 22.3027 71.6445 22.1426C71.582 21.9824 71.5137 21.8242 71.4395 21.668L69.5996 17.7363H68.0293L71.0703 23.9473L71.1641 23.9531C70.8828 24.6055 70.6152 25.0078 70.3613 25.1602C70.1074 25.3164 69.7812 25.3945 69.3828 25.3945C69.2305 25.3945 69.0742 25.3848 68.9141 25.3652C68.7539 25.3457 68.6035 25.3203 68.4629 25.2891L68.4512 26.4375ZM76.2598 20.959C76.2598 21.9277 76.6055 22.707 77.2969 23.2969C77.9922 23.8828 78.9316 24.1758 80.1152 24.1758C81.2285 24.1758 82.0781 23.9473 82.6641 23.4902C83.25 23.0293 83.543 22.5059 83.543 21.9199V21.8672H82.043V21.9258C82.0352 22.2539 81.8828 22.5215 81.5859 22.7285C81.293 22.9316 80.8008 23.0332 80.1094 23.0332C79.3125 23.0332 78.7246 22.8477 78.3457 22.4766C77.9668 22.1055 77.7773 21.6172 77.7773 21.0117V20.7246C77.7773 20.1191 77.9668 19.6309 78.3457 19.2598C78.7246 18.8887 79.3125 18.7031 80.1094 18.7031C80.8008 18.7031 81.293 18.8066 81.5859 19.0137C81.8828 19.2207 82.0352 19.4844 82.043 19.8047V19.8691H83.543V19.7988C83.5234 19.2129 83.2246 18.6934 82.6465 18.2402C82.0723 17.7871 81.2305 17.5605 80.1211 17.5605C78.9336 17.5605 77.9922 17.8555 77.2969 18.4453C76.6055 19.0312 76.2598 19.8066 76.2598 20.7715V20.959ZM84.2559 18.873H86.9336V24H88.4219V18.873H91.0996V17.7363H84.2559V18.873ZM92.0469 22.1602C92.0469 22.793 92.2949 23.2773 92.791 23.6133C93.291 23.9492 93.959 24.1172 94.7949 24.1172C95.5254 24.1172 96.1328 24.0234 96.6172 23.8359C97.1016 23.6484 97.4336 23.4258 97.6133 23.168C97.6289 23.3164 97.6641 23.4688 97.7188 23.625C97.7734 23.7812 97.832 23.9062 97.8945 24H99.3359V23.9062C99.2461 23.7422 99.1738 23.5469 99.1191 23.3203C99.0684 23.0938 99.043 22.8555 99.043 22.6055V19.6816C99.043 18.9863 98.7617 18.459 98.1992 18.0996C97.6406 17.7402 96.8516 17.5605 95.832 17.5605C94.793 17.5605 93.9746 17.7285 93.377 18.0645C92.7832 18.3965 92.4863 18.8672 92.4863 19.4766V19.5234H93.957V19.4707C93.957 19.2129 94.1055 19.0078 94.4023 18.8555C94.7031 18.7031 95.1602 18.627 95.7734 18.627C96.4062 18.627 96.8633 18.7129 97.1445 18.8848C97.4258 19.0566 97.5664 19.3223 97.5664 19.6816V20.1094H95.5625C94.4609 20.1094 93.5996 20.2852 92.9785 20.6367C92.3574 20.9883 92.0469 21.4961 92.0469 22.1602ZM93.5234 22.0605C93.5234 21.7285 93.7148 21.4727 94.0977 21.293C94.4844 21.1133 95.0449 21.0234 95.7793 21.0234H97.5723V21.7617C97.5723 22.0938 97.3438 22.3926 96.8867 22.6582C96.4297 22.9238 95.8965 23.0566 95.2871 23.0566C94.6738 23.0566 94.2266 22.9746 93.9453 22.8105C93.6641 22.6465 93.5234 22.3965 93.5234 22.0605ZM101.092 17.7363V24H102.574V21.375H106.359V24H107.848V17.7363H106.359V20.2383H102.574V17.7363H101.092ZM109.521 20.959C109.521 21.9238 109.881 22.7012 110.6 23.291C111.318 23.8809 112.268 24.1758 113.447 24.1758C114.627 24.1758 115.576 23.8809 116.295 23.291C117.014 22.7012 117.373 21.9238 117.373 20.959V20.7715C117.373 19.8066 117.014 19.0312 116.295 18.4453C115.576 17.8555 114.627 17.5605 113.447 17.5605C112.268 17.5605 111.318 17.8555 110.6 18.4453C109.881 19.0312 109.521 19.8066 109.521 20.7715V20.959ZM111.039 20.7246C111.039 20.127 111.244 19.6445 111.654 19.2773C112.064 18.9062 112.662 18.7207 113.447 18.7207C114.229 18.7207 114.824 18.9062 115.234 19.2773C115.645 19.6445 115.85 20.127 115.85 20.7246V21.0059C115.85 21.6074 115.645 22.0938 115.234 22.4648C114.828 22.832 114.232 23.0156 113.447 23.0156C112.662 23.0156 112.064 22.832 111.654 22.4648C111.244 22.0938 111.039 21.6094 111.039 21.0117V20.7246ZM119.041 24H123.412C124.178 24 124.764 23.8438 125.17 23.5312C125.576 23.2188 125.779 22.7812 125.779 22.2188C125.779 21.8203 125.654 21.5 125.404 21.2578C125.158 21.0117 124.834 20.8516 124.432 20.7773V20.7598C124.791 20.6582 125.068 20.4922 125.264 20.2617C125.463 20.0273 125.562 19.7285 125.562 19.3652C125.562 18.8262 125.369 18.4199 124.982 18.1465C124.596 17.873 124.004 17.7363 123.207 17.7363H119.041V24ZM120.512 20.3145V18.7734H123.061C123.416 18.7734 123.67 18.8359 123.822 18.9609C123.979 19.0859 124.057 19.2695 124.057 19.5117C124.057 19.7656 123.979 19.9629 123.822 20.1035C123.67 20.2441 123.416 20.3145 123.061 20.3145H120.512ZM120.512 22.9629V21.3164H123.236C123.6 21.3164 123.865 21.3887 124.033 21.5332C124.201 21.6777 124.285 21.877 124.285 22.1309C124.285 22.3887 124.201 22.5918 124.033 22.7402C123.865 22.8887 123.6 22.9629 123.236 22.9629H120.512ZM127.447 24H128.93L132.352 20.0156C132.449 19.8984 132.529 19.7852 132.592 19.6758C132.654 19.5664 132.711 19.4531 132.762 19.3359H132.791C132.787 19.457 132.781 19.5898 132.773 19.7344C132.77 19.8789 132.768 20.0117 132.768 20.1328V24H134.256V17.7363H132.773L129.352 21.709C129.254 21.8262 129.174 21.9395 129.111 22.0488C129.053 22.1582 128.996 22.2715 128.941 22.3887H128.906C128.91 22.2676 128.916 22.1348 128.924 21.9902C128.932 21.8418 128.936 21.707 128.936 21.5859V17.7363H127.447V24ZM135.584 18.873H138.262V24H139.75V18.873H142.428V17.7363H135.584V18.873ZM145.238 17.7363H143.756V24H147.734C148.539 24 149.154 23.8125 149.58 23.4375C150.01 23.0625 150.225 22.5449 150.225 21.8848C150.225 21.2012 150.01 20.6777 149.58 20.3145C149.154 19.9473 148.539 19.7637 147.734 19.7637H145.238V17.7363ZM147.547 20.8477C147.977 20.8477 148.281 20.9395 148.461 21.123C148.641 21.3027 148.73 21.5527 148.73 21.873C148.73 22.2051 148.641 22.4629 148.461 22.6465C148.281 22.8301 147.977 22.9219 147.547 22.9219H145.238V20.8477H147.547Z" fill="white"/>
<path d="M101.8 35.8696C98.8663 35.8696 96.4748 38.1002 96.4748 41.1753C96.4748 44.2305 98.8663 46.4811 101.8 46.4811C104.735 46.4811 107.126 44.2305 107.126 41.1753C107.126 38.1002 104.735 35.8696 101.8 35.8696ZM101.8 44.3915C100.192 44.3915 98.8051 43.0653 98.8051 41.1753C98.8051 39.2654 100.192 37.9592 101.8 37.9592C103.409 37.9592 104.795 39.2654 104.795 41.1753C104.795 43.0641 103.409 44.3915 101.8 44.3915ZM90.181 35.8696C87.2468 35.8696 84.8553 38.1002 84.8553 41.1753C84.8553 44.2305 87.2468 46.4811 90.181 46.4811C93.1152 46.4811 95.5067 44.2305 95.5067 41.1753C95.5079 38.1002 93.1152 35.8696 90.181 35.8696ZM90.181 44.3915C88.5729 44.3915 87.1869 43.0653 87.1869 41.1753C87.1869 39.2654 88.5742 37.9592 90.181 37.9592C91.7891 37.9592 93.1751 39.2654 93.1751 41.1753C93.1763 43.0641 91.7891 44.3915 90.181 44.3915ZM76.3609 37.4976V39.7482H81.7477C81.5868 41.0144 81.1651 41.9388 80.5214 42.5825C79.738 43.366 78.5116 44.2305 76.3609 44.2305C73.045 44.2305 70.4526 41.5571 70.4526 38.2412C70.4526 34.9252 73.045 32.2518 76.3609 32.2518C78.1499 32.2518 79.456 32.9554 80.4204 33.8598L82.0085 32.2717C80.6624 30.9855 78.8734 30 76.3609 30C71.8187 30 68 33.6977 68 38.2399C68 42.7821 71.8187 46.4798 76.3609 46.4798C78.8123 46.4798 80.6624 45.6764 82.1095 44.1681C83.5966 42.6811 84.0594 40.5902 84.0594 38.9023C84.0594 38.3796 84.0195 37.8968 83.9384 37.4951H76.3609V37.4976ZM132.884 39.2454C132.442 38.059 131.095 35.8684 128.342 35.8684C125.608 35.8684 123.338 38.0191 123.338 41.1741C123.338 44.1482 125.588 46.4798 128.604 46.4798C131.035 46.4798 132.442 44.9928 133.025 44.1282L131.216 42.9219C130.613 43.8064 129.789 44.389 128.604 44.389C127.417 44.389 126.574 43.8463 126.031 42.7809L133.126 39.8467L132.884 39.2454ZM125.648 41.0144C125.588 38.9647 127.236 37.9193 128.421 37.9193C129.346 37.9193 130.129 38.3809 130.391 39.0446L125.648 41.0144ZM119.88 46.1592H122.211V30.5639H119.88V46.1592ZM116.061 37.0548H115.981C115.458 36.4322 114.454 35.8684 113.188 35.8684C110.534 35.8684 108.103 38.2 108.103 41.194C108.103 44.1681 110.534 46.4798 113.188 46.4798C114.454 46.4798 115.458 45.9172 115.981 45.2735H116.061V46.0369C116.061 48.0667 114.976 49.152 113.227 49.152C111.799 49.152 110.915 48.1265 110.553 47.2633L108.523 48.1078C109.106 49.515 110.654 51.2429 113.227 51.2429C115.96 51.2429 118.272 49.6348 118.272 45.7163V36.1902H116.061V37.0548ZM113.389 44.3915C111.781 44.3915 110.435 43.0454 110.435 41.1953C110.435 39.3265 111.781 37.9592 113.389 37.9592C114.977 37.9592 116.222 39.3253 116.222 41.1953C116.222 43.0441 114.977 44.3915 113.389 44.3915ZM143.805 30.5639H138.227V46.1592H140.554V40.2509H143.803C146.383 40.2509 148.919 38.3834 148.919 35.408C148.919 32.4327 146.384 30.5639 143.805 30.5639ZM143.864 38.0802H140.554V32.7346H143.864C145.605 32.7346 146.593 34.1755 146.593 35.408C146.593 36.6156 145.605 38.0802 143.864 38.0802ZM158.251 35.8409C156.566 35.8409 154.82 36.5832 154.098 38.2287L156.165 39.092C156.607 38.2287 157.429 37.948 158.292 37.948C159.496 37.948 160.72 38.6703 160.74 39.954V40.1149C160.318 39.8742 159.415 39.5124 158.312 39.5124C156.085 39.5124 153.817 40.7362 153.817 43.0242C153.817 45.1113 155.644 46.4549 157.69 46.4549C159.255 46.4549 160.117 45.7525 160.659 44.9304H160.739V46.1342H162.985V40.1549C162.985 37.3853 160.919 35.8409 158.251 35.8409ZM157.969 44.3877C157.207 44.3877 156.143 44.006 156.143 43.0641C156.143 41.8602 157.468 41.3986 158.61 41.3986C159.633 41.3986 160.115 41.6194 160.737 41.9201C160.558 43.3647 159.314 44.3877 157.969 44.3877ZM171.172 36.1815L168.503 42.9431H168.423L165.655 36.1815H163.147L167.3 45.6315L164.933 50.8886H167.36L173.761 36.1815H171.172ZM150.204 46.1592H152.532V30.5639H150.204V46.1592Z" fill="white"/>
<defs>
<linearGradient id="paint0_linear_2767_17592" x1="37.3662" y1="17.9529" x2="16.5072" y2="39.7358" gradientUnits="userSpaceOnUse">
<stop stop-color="#00A0FF"/>
<stop offset="0.0066" stop-color="#00A1FF"/>
<stop offset="0.2601" stop-color="#00BEFF"/>
<stop offset="0.5122" stop-color="#00D2FF"/>
<stop offset="0.7604" stop-color="#00DFFF"/>
<stop offset="1" stop-color="#00E3FF"/>
</linearGradient>
<linearGradient id="paint1_linear_2767_17592" x1="53.0018" y1="31.9997" x2="21.5657" y2="31.9997" gradientUnits="userSpaceOnUse">
<stop stop-color="#FFE000"/>
<stop offset="0.4087" stop-color="#FFBD00"/>
<stop offset="0.7754" stop-color="#FFA500"/>
<stop offset="1" stop-color="#FF9C00"/>
</linearGradient>
<linearGradient id="paint2_linear_2767_17592" x1="41.2992" y1="34.8554" x2="13.0128" y2="64.3948" gradientUnits="userSpaceOnUse">
<stop stop-color="#FF3A44"/>
<stop offset="1" stop-color="#C31162"/>
</linearGradient>
<linearGradient id="paint3_linear_2767_17592" x1="18.5257" y1="7.33563" x2="31.1568" y2="20.5262" gradientUnits="userSpaceOnUse">
<stop stop-color="#32A071"/>
<stop offset="0.0685" stop-color="#2DA771"/>
<stop offset="0.4762" stop-color="#15CF74"/>
<stop offset="0.8009" stop-color="#06E775"/>
<stop offset="1" stop-color="#00F076"/>
</linearGradient>
</defs>
</svg>
